<svg width="50" height="50" viewBox="0 0 50 50" fill="none" xmlns="http://www.w3.org/2000/svg">
<path d="M44.0031 19.237C43.8924 19.206 43.7627 19.1425 43.7669 19.0363C43.77 18.9566 43.8499 18.9002 43.9226 18.8567C44.0179 18.7997 44.1143 18.7441 44.2116 18.69C44.3884 18.5917 44.5686 18.4982 44.7515 18.4097C43.7347 16.5967 41.7235 15.35 39.4795 14.9902L39.4786 14.99C38.6553 14.8581 37.8007 14.8455 36.9523 14.9683C34.2395 15.3607 31.9408 17.01 30.0866 18.9624C30.9209 16.754 31.3104 14.368 30.6626 12.0741C30.5262 11.5909 30.3445 11.1242 30.1238 10.6798C28.9385 8.29307 26.6276 6.54788 24.1497 6.32467C24.1702 6.63134 24.1417 6.94133 24.0634 7.23855C24.0353 7.3451 23.9743 7.471 23.8641 7.47104C23.7813 7.47107 23.7199 7.39715 23.672 7.32955C23.6093 7.24093 23.5481 7.1513 23.4884 7.0607C23.3718 6.88393 23.261 6.70339 23.1559 6.51956C23.0466 6.59517 22.9438 6.68461 22.8446 6.77517C21.5224 7.98221 20.5225 9.59154 19.9428 11.365C19.571 12.5025 19.3719 13.7075 19.3715 14.9173C19.371 16.4441 19.6857 17.9647 20.2623 19.3573C17.9285 17.6394 15.1506 16.295 12.1915 16.4396H12.1913C12.1769 16.4403 12.1624 16.441 12.1479 16.4418C8.86653 16.6183 5.88046 18.7071 4.99841 21.4837C5.37428 21.5671 5.73345 21.7264 6.04589 21.9515C6.13531 22.0159 6.23098 22.1179 6.19153 22.2208C6.16184 22.2982 6.07084 22.329 5.99059 22.3494C5.88538 22.3762 5.77978 22.4012 5.67377 22.4246C5.45383 22.4729 5.23223 22.5137 5.00951 22.547C5.0588 22.6504 5.11788 22.7514 5.17836 22.85C6.20437 24.5235 7.79099 25.9304 9.6544 26.8828C10.5995 27.3658 11.6159 27.732 12.6664 27.9566C14.77 28.4065 16.9846 28.2856 18.968 27.6581C16.9709 28.6369 15.2216 30.2183 14.0571 32.1658C13.4257 33.2219 12.9714 34.3786 12.7036 35.5691L12.7033 35.5708C12.2767 37.4687 12.3242 39.4526 12.8847 41.2523C12.9131 41.3434 12.9433 41.4349 12.9782 41.5239C13.3319 41.2832 13.7327 41.1116 14.1517 41.0248C14.2755 40.9992 14.436 40.9975 14.4924 41.1106C14.5348 41.1957 14.4902 41.2966 14.4453 41.3803C14.3863 41.49 14.3255 41.5987 14.263 41.7064C14.1321 41.9319 13.9935 42.1528 13.8475 42.3687C16.5311 43.6601 20.0552 43.0965 22.4642 41.0588L22.4649 41.0583C22.5637 40.9747 22.6606 40.8886 22.7555 40.8001C24.963 38.7414 25.8337 35.7147 26.0925 32.7524C26.6987 35.273 27.826 37.7146 29.892 39.3308C30.1715 39.5495 30.4644 39.7483 30.7674 39.927C33.1383 41.3245 36.1387 41.486 38.3757 40.2545C38.1296 39.9498 37.9386 39.6005 37.8176 39.2279C37.7792 39.1095 37.7601 38.9525 37.8649 38.8851C37.9436 38.8344 38.0472 38.8671 38.134 38.9021C38.2478 38.948 38.3609 38.9958 38.473 39.0454C38.7389 39.1629 39.0001 39.2908 39.256 39.4286C39.3076 39.2906 39.3413 39.1425 39.3705 38.9959C39.7335 37.1765 39.5641 35.2132 38.9313 33.3816L38.9312 33.3815C38.5571 32.2987 38.021 31.2619 37.3371 30.3281C36.3724 29.011 35.1237 27.9105 33.73 27.1075C35.403 27.129 37.1161 26.7986 38.6853 26.1184C39.671 25.691 40.5936 25.1278 41.42 24.4618C42.9886 23.1976 44.2105 21.5629 44.8596 19.7836C44.911 19.6427 44.9593 19.4982 44.9857 19.3539C44.6542 19.3651 44.3205 19.3262 44.0031 19.237Z" fill="#F7BFCA"/>
<path d="M40.7446 19.9586C39.7205 18.0214 37.2156 16.9029 34.7789 17.2553C31.9781 17.6605 29.7595 19.8318 28.1809 21.9452C28.5978 22.2628 28.9198 22.7072 29.1014 23.2008C30.3948 22.6549 31.8318 22.3828 33.2249 22.1304L29.2127 23.5886C29.2507 23.7716 29.2694 23.9583 29.2667 24.1451C29.2667 24.1453 29.2667 24.1454 29.2667 24.1455C29.2665 24.1583 29.2662 24.171 29.2659 24.1838C29.2658 24.1871 29.2656 24.1904 29.2655 24.1938C29.2652 24.2036 29.2648 24.2134 29.2644 24.2233C29.2638 24.2366 29.2631 24.25 29.2622 24.2634L29.262 24.267C29.2612 24.2799 29.2602 24.2928 29.2592 24.3056L29.259 24.3082L29.2589 24.3103L35.6383 23.8881C33.531 24.3936 31.3315 24.8984 29.2063 24.6594L29.2002 24.6906C29.1892 24.7456 29.1783 24.8006 29.1686 24.8557C29.1672 24.8636 29.1658 24.8714 29.1645 24.8793C29.1444 24.9974 29.131 25.1157 29.1369 25.2353C29.1396 25.2878 29.146 25.3399 29.1547 25.3917C29.1576 25.4089 29.1608 25.4261 29.1642 25.4433L29.1706 25.4748C29.1776 25.5079 29.1853 25.5408 29.1933 25.5737L29.1965 25.5866C29.2003 25.6019 29.2041 25.6172 29.208 25.6326C29.2124 25.6501 29.2168 25.6676 29.2212 25.6851L29.2278 25.7113C29.2316 25.7267 29.2354 25.7421 29.2391 25.7575C29.2418 25.7684 29.2444 25.7793 29.2469 25.7902L29.253 25.8165L29.259 25.8438C29.2891 25.8566 29.3192 25.8697 29.3496 25.8819C29.4736 25.9321 29.5995 25.979 29.7269 26.0227C29.5774 25.9897 29.4274 25.9612 29.277 25.9373C29.285 25.9853 29.291 26.0336 29.2937 26.0823C29.2999 26.1902 29.2905 26.2955 29.268 26.3976C29.2639 26.4161 29.2594 26.4346 29.2545 26.4529C29.2297 26.5446 29.1946 26.6336 29.1508 26.7193C29.1421 26.7365 29.133 26.7535 29.1236 26.7704C29.1141 26.7872 29.1044 26.804 29.0943 26.8206C29.0842 26.8372 29.0738 26.8537 29.0631 26.8701C29.0525 26.8864 29.0415 26.9026 29.0302 26.9187C29.0189 26.9347 29.0074 26.9507 28.9955 26.9664C28.9837 26.9822 28.9716 26.9978 28.9592 27.0133C28.9469 27.0288 28.9342 27.0441 28.9214 27.0593C28.915 27.0669 28.9085 27.0744 28.9019 27.0819C28.8888 27.0969 28.8755 27.1118 28.862 27.1265C28.8552 27.1339 28.8484 27.1412 28.8415 27.1484C28.8208 27.1703 28.7997 27.1917 28.7782 27.2128C28.7685 27.2222 28.7588 27.2316 28.7489 27.2409C28.7454 27.2443 28.7418 27.2475 28.7383 27.2509C28.7317 27.257 28.7251 27.2631 28.7185 27.2692C28.7149 27.2725 28.7113 27.2757 28.7076 27.279C28.7009 27.2851 28.6941 27.2913 28.6872 27.2973C28.6837 27.3004 28.6802 27.3035 28.6767 27.3065C28.6694 27.3129 28.662 27.3193 28.6547 27.3256C28.6517 27.3282 28.6488 27.3307 28.6458 27.3332C28.6374 27.3404 28.6288 27.3475 28.6203 27.3546C28.6183 27.3562 28.6163 27.3579 28.6143 27.3596C28.5813 27.3867 28.5476 27.4131 28.5135 27.4386C28.5133 27.4387 28.5132 27.4388 28.513 27.439C29.5872 28.491 30.4105 29.8323 31.1948 31.1344L28.1905 27.6494C28.1883 27.6508 28.186 27.6521 28.1837 27.6534C28.1764 27.6576 28.169 27.6619 28.1617 27.666C28.1579 27.6682 28.154 27.6705 28.1502 27.6726C28.1421 27.6772 28.134 27.6818 28.1259 27.6864C28.1233 27.6878 28.1208 27.6893 28.1182 27.6907C28.1093 27.6957 28.1004 27.7007 28.0915 27.7056C28.0887 27.7072 28.0859 27.7087 28.0831 27.7102C28.0745 27.715 28.0658 27.7197 28.0572 27.7245C28.0545 27.7259 28.0518 27.7274 28.0492 27.7288C28.0405 27.7336 28.0318 27.7383 28.023 27.7431C28.0199 27.7447 28.0168 27.7464 28.0137 27.7481C28.0051 27.7527 27.9965 27.7573 27.9879 27.7619L27.9798 27.7662C27.9708 27.771 27.9618 27.7758 27.9528 27.7805C27.9502 27.7819 27.9475 27.7833 27.9449 27.7847C27.9367 27.789 27.9285 27.7933 27.9203 27.7976C27.9163 27.7997 27.9123 27.8018 27.9083 27.8038C27.9004 27.808 27.8924 27.8121 27.8845 27.8162C27.8812 27.818 27.8779 27.8197 27.8746 27.8214C27.8663 27.8257 27.8581 27.8299 27.8498 27.8342C27.8459 27.8362 27.842 27.8382 27.8382 27.8402C27.8319 27.8434 27.8256 27.8466 27.8194 27.8498C27.8129 27.8532 27.8064 27.8565 27.7999 27.8598C27.7955 27.862 27.7911 27.8643 27.7866 27.8666C27.7793 27.8703 27.7719 27.8741 27.7646 27.8778C27.7603 27.88 27.7561 27.8821 27.7519 27.8843C27.7454 27.8876 27.7388 27.891 27.7323 27.8943C27.7133 27.9039 27.6944 27.9135 27.6755 27.9231C27.6638 27.9291 27.6521 27.935 27.6404 27.941C27.6377 27.9423 27.635 27.9437 27.6323 27.945L30.4081 34.0145C29.1507 32.1699 27.8593 30.2336 27.358 28.0873C27.358 28.0873 27.3579 28.0874 27.3577 28.0874C27.3469 28.0933 27.336 28.0992 27.3251 28.105C27.3234 28.106 27.3216 28.107 27.3199 28.1079C27.3105 28.113 27.3011 28.1181 27.2918 28.1233C27.2889 28.1248 27.286 28.1264 27.2832 28.128C27.2748 28.1326 27.2663 28.1373 27.2579 28.142C27.2543 28.144 27.2507 28.146 27.2471 28.148C27.2354 28.1545 27.2238 28.1611 27.2122 28.1677C27.177 28.1877 27.1421 28.2081 27.1076 28.2289C27.073 28.2498 27.0388 28.271 27.0049 28.2929C26.9823 28.3074 26.9599 28.3222 26.9376 28.3373C26.9134 28.3537 26.8893 28.3704 26.8655 28.3875C26.8497 28.3989 26.8339 28.4105 26.8182 28.4222L26.7948 28.4399C26.7793 28.4517 26.7639 28.4638 26.7486 28.476C26.7256 28.4943 26.703 28.5131 26.6806 28.5323C26.6577 28.5519 26.6351 28.572 26.6128 28.5923C26.6016 28.6025 26.5905 28.6127 26.5794 28.623L26.5628 28.6385C26.5517 28.6488 26.5407 28.6591 26.5297 28.6695L26.5052 28.6927C26.4919 28.7052 26.4786 28.7177 26.4654 28.7302C26.4255 28.7677 26.3855 28.8048 26.3444 28.8406L26.3217 28.8602L26.303 28.876C26.2599 28.9119 26.2155 28.9461 26.169 28.9774C26.1565 28.9858 26.1439 28.994 26.1311 29.002C26.0758 29.0365 26.0176 29.0664 25.9575 29.0914C26.2431 31.673 27.0514 34.543 29.2065 36.2291C31.151 37.7502 33.9374 38.004 35.8634 36.7988C35.9809 36.7253 36.097 36.6455 36.1826 36.5358C36.3043 36.3797 36.3552 36.1755 36.3952 35.975C36.8332 33.7795 36.2491 31.3074 34.853 29.4013C33.7818 27.9388 32.2492 26.8287 30.5853 26.263C32.3621 26.6549 34.3453 26.4694 36.0932 25.7117C38.2598 24.7725 40.0242 22.9677 40.7759 20.9074C40.8445 20.7192 40.9058 20.5227 40.882 20.3329C40.8652 20.1995 40.8071 20.0767 40.7446 19.9586Z" fill="#F192AD"/>
<path d="M33.7299 27.1076C35.1237 27.9105 36.3723 29.011 37.337 30.3281C38.021 31.2619 38.5571 32.2987 38.9312 33.3815C39.0924 33.3532 39.2522 33.3187 39.4099 33.2783C39.3895 33.162 39.3687 33.0458 39.3454 32.9299C39.2338 32.3745 39.0885 31.8259 38.9088 31.2886C38.7395 30.7824 38.516 30.2978 38.3416 29.7939C38.0878 29.0603 37.906 28.1758 38.3485 27.4748C38.8656 26.6558 39.9247 26.4728 40.7564 26.1286C41.2273 25.9337 41.6975 25.6701 42.005 25.2526C42.0188 25.2338 42.0314 25.2142 42.0448 25.1951C41.8753 24.9963 41.7059 24.7974 41.5364 24.5986C41.4976 24.553 41.4588 24.5074 41.4199 24.4618C40.5935 25.1279 39.6709 25.6911 38.6852 26.1184C37.116 26.7986 35.403 27.129 33.7299 27.1076Z" fill="#DC638E"/>
<path d="M43.5917 27.0102L42.0448 25.1951C42.0314 25.2142 42.0188 25.2338 42.005 25.2526C41.6975 25.6701 41.2273 25.9337 40.7563 26.1286C39.9247 26.4728 38.8656 26.6558 38.3485 27.4748C37.9059 28.1758 38.0877 29.0603 38.3416 29.7939C38.516 30.2978 38.7395 30.7824 38.9088 31.2886C39.0885 31.8259 39.2338 32.3745 39.3454 32.9299C39.3686 33.0451 39.3893 33.1606 39.4095 33.2761C40.1499 33.0865 40.8471 32.7705 41.4476 32.3662C42.5103 31.6507 43.313 30.6928 43.9904 29.6814C44.6763 28.6575 44.465 28.0349 43.5917 27.0102Z" fill="#EF82A4"/>
<path d="M12.5423 29.9472C12.3053 29.576 11.934 29.3253 11.5556 29.115C11.1097 28.8671 10.6269 28.6673 10.2114 28.3685C9.83797 28.1 9.55621 27.7266 9.39256 27.2996C8.83175 28.1925 8.27096 29.0853 7.71019 29.9783C6.99412 31.1184 6.87499 31.7649 7.70163 32.679C8.51813 33.5818 9.45072 34.4138 10.6057 34.9682C11.0206 35.1673 11.4535 35.3209 11.9203 35.4311C11.8791 34.808 11.971 34.1836 12.1545 33.588C12.3721 32.8821 12.6995 32.2063 12.8107 31.4705C12.8872 30.9641 12.8222 30.3855 12.5423 29.9472Z" fill="#EF82A4"/>
<path d="M10.2114 28.3685C10.6269 28.6673 11.1097 28.8671 11.5556 29.115C11.934 29.3253 12.3053 29.576 12.5423 29.9472C12.8222 30.3855 12.8872 30.9641 12.8107 31.4705C12.6995 32.2063 12.3721 32.8821 12.1545 33.588C11.971 34.1836 11.8791 34.808 11.9203 35.4311C12.1766 35.4923 12.4385 35.5388 12.7036 35.5691C12.9714 34.3786 13.4257 33.2219 14.0571 32.1658C15.2215 30.2183 16.9709 28.6369 18.9679 27.6581C16.9845 28.2856 14.77 28.4065 12.6664 27.9566C11.6158 27.7319 10.5995 27.3658 9.65434 26.8828C9.56708 27.0217 9.47983 27.1606 9.39258 27.2996C9.55617 27.7266 9.83794 28.1 10.2114 28.3685Z" fill="#DC638E"/>
<path d="M25.6342 29.1776C25.6189 29.1796 25.6036 29.1812 25.5883 29.1826C25.5729 29.184 25.5576 29.185 25.5422 29.1858C25.5114 29.1874 25.4806 29.1879 25.4498 29.1872L25.4268 29.1864C25.3964 29.1851 25.3661 29.1827 25.3361 29.1794C25.3181 29.1773 25.3002 29.1749 25.2823 29.1722C25.2644 29.1695 25.2466 29.1664 25.2288 29.163L25.2111 29.1595C25.1816 29.1535 25.1523 29.1466 25.1231 29.1389L25.1057 29.1342C25.0941 29.131 25.0825 29.1277 25.0709 29.1242C25.0535 29.1191 25.0362 29.1136 25.019 29.108C24.996 29.1004 24.9731 29.0924 24.9503 29.084C24.9389 29.0798 24.9275 29.0755 24.9162 29.0711C24.7177 28.9942 24.5268 28.8887 24.3408 28.7847C24.2708 28.7456 24.2009 28.7065 24.1309 28.6674C23.5517 30.2201 22.4854 31.601 21.4468 32.9204L23.8437 28.5068C23.6888 28.4202 23.5338 28.3336 23.3789 28.2469L18.4747 33.2042C19.803 31.3063 21.2107 29.3393 23.1472 28.1174C22.9675 28.0169 22.7878 27.9165 22.6081 27.816C22.5605 27.7894 22.5125 27.7623 22.4646 27.7346C22.4166 27.7069 22.3687 27.6785 22.3212 27.6493C22.2873 27.6284 22.2537 27.6071 22.2205 27.5853C22.1739 27.5547 22.1282 27.5232 22.0836 27.4905C22.0646 27.4765 22.0457 27.4623 22.0271 27.4478C22.0136 27.4373 22.0002 27.4266 21.987 27.4158C21.9578 27.392 21.9292 27.3676 21.9016 27.3425L21.8845 27.3267C21.8563 27.3004 21.8289 27.2732 21.8028 27.2452L21.7872 27.2283C21.7363 27.1723 21.69 27.1129 21.6495 27.0497C19.5703 27.6401 17.6793 29.0885 16.5342 31.0037C15.2917 33.0817 14.9531 35.6735 15.6451 37.895C15.7082 38.0979 15.7831 38.3037 15.9263 38.4539C16.0269 38.5596 16.1561 38.6319 16.2859 38.6976C18.4146 39.7754 21.2782 39.2801 23.1311 37.552C25.3855 35.4496 25.8017 32.0161 25.7216 29.1633C25.7066 29.1663 25.6915 29.169 25.6763 29.1715C25.6623 29.1738 25.6483 29.1758 25.6342 29.1776Z" fill="#F192AD"/>
<path d="M21.4562 26.1015C21.4555 25.9335 21.4534 25.7652 21.4222 25.6016C21.4031 25.5011 21.3731 25.4036 21.3393 25.307C21.3286 25.2767 21.3176 25.2464 21.3064 25.2162C21.2963 25.1891 21.2861 25.1621 21.276 25.1351C21.2728 25.1266 21.2696 25.1182 21.2664 25.1098C21.2188 24.983 21.1725 24.8559 21.1431 24.7241C19.5565 24.5467 18.0048 23.9098 16.5148 23.2826L21.1227 24.357L21.1236 24.3486L21.1257 24.3307L21.1271 24.3192L21.1305 24.2953L21.1326 24.2823L21.136 24.2616L21.1384 24.2491L21.1416 24.2323L21.1444 24.219L21.1479 24.203L21.1509 24.1896L21.1548 24.1734L21.1581 24.1604L21.1625 24.1436L21.1659 24.1311L21.1711 24.1129L21.1743 24.102L21.1831 24.0735L21.1852 24.0671L21.1928 24.0443L21.1968 24.033L21.203 24.0154L21.2077 24.0027L21.214 23.9862L21.2189 23.9735L21.2256 23.9568L21.2307 23.9443L21.2378 23.9275L21.243 23.9153L21.2511 23.8972L21.2559 23.8865L21.269 23.8583L21.2723 23.8515L21.2831 23.8296L21.2886 23.8185L21.2976 23.801L21.304 23.7888L21.3086 23.7799L15.453 20.4923C17.5784 21.2494 19.7871 22.0618 21.4637 23.5294L21.4688 23.5221L21.4791 23.5079L21.489 23.4942L21.4993 23.4803L21.5092 23.4669L21.5247 23.4465L21.5379 23.4294L21.5501 23.4137L21.5601 23.4012L21.5717 23.3867L21.583 23.3728L21.593 23.3606L21.6052 23.3459L21.6157 23.3334L21.6276 23.3194L21.6384 23.3069L21.6505 23.2929L21.6617 23.2803L21.6738 23.2665L21.6836 23.2557L21.7097 23.227L21.7198 23.2161L21.7351 23.1999L21.7434 23.191L21.7583 23.1755L21.7689 23.1645L21.7831 23.15L21.793 23.1399L21.8085 23.1243L21.8179 23.115L21.8338 23.0993L21.8412 23.092C21.8629 23.0709 21.885 23.0499 21.9073 23.0291L21.9086 23.0279L21.9284 23.0097L21.9354 23.0033L21.9536 22.9867L21.9621 22.9791L21.9804 22.9629L21.9888 22.9554L22.0073 22.9393L22.0155 22.9322L22.035 22.9155L22.0387 22.9123C22.0712 22.8847 22.1041 22.8575 22.1376 22.8307L22.143 22.8263L22.1641 22.8097L22.1714 22.8039L22.1933 22.7869L22.1984 22.7829L22.2222 22.7647L22.2245 22.7629C22.238 22.7527 22.2515 22.7426 22.265 22.7325C22.2921 22.7124 22.3195 22.6925 22.3471 22.673C22.3609 22.6632 22.3748 22.6535 22.3886 22.6439L22.3918 22.6418L22.4178 22.6239L22.42 22.6225C22.4317 22.6145 22.4435 22.6066 22.4552 22.5988C22.4583 22.5967 22.4614 22.5947 22.4645 22.5927C22.4744 22.5861 22.4843 22.5796 22.4942 22.5732C22.4962 22.5718 22.4983 22.5705 22.5004 22.5691C22.5123 22.5613 22.5243 22.5536 22.5364 22.546C22.5386 22.5446 22.5408 22.5432 22.543 22.5418C22.5532 22.5353 22.5635 22.5288 22.5738 22.5225C22.5763 22.5209 22.5788 22.5193 22.5813 22.5178C22.6058 22.5026 22.6304 22.4876 22.6552 22.473C22.6575 22.4715 22.6599 22.4701 22.6622 22.4687C22.6742 22.4616 22.6862 22.4546 22.6983 22.4476C22.6986 22.4475 22.6988 22.4473 22.6991 22.4471C22.712 22.4397 22.7249 22.4323 22.7378 22.425C22.7393 22.4241 22.7409 22.4232 22.7425 22.4223C22.7544 22.4156 22.7663 22.409 22.7782 22.4024C22.7791 22.4019 22.78 22.4014 22.7809 22.4009C22.8071 22.3864 22.8334 22.3723 22.8596 22.3585C22.8608 22.3579 22.8619 22.3573 22.8631 22.3567C23.3299 22.1116 23.8069 21.9681 24.1768 21.9825C24.3118 21.9878 24.4486 21.9991 24.5856 22.0099C24.0425 20.5636 23.8814 18.9516 23.7395 17.3949L24.9749 22.0337C25.1712 22.0395 25.3648 22.0313 25.551 21.9897L25.7032 15.1461C26.0345 17.3817 26.3563 19.7172 25.8453 21.89C26.0564 21.7904 26.24 21.6363 26.4571 21.5502C26.8077 21.4113 27.2087 21.4661 27.5614 21.5996C27.7758 21.6807 27.9761 21.7925 28.1586 21.9285C29.2685 19.8197 30.0535 17.327 29.386 14.9631C28.7191 12.6016 26.6285 10.7616 24.3697 10.5963C24.2319 10.5863 24.0916 10.582 23.9581 10.6197C23.7682 10.6733 23.607 10.8071 23.4567 10.9443C21.8107 12.4469 20.8234 14.7715 20.8226 17.1194C20.8221 18.5446 21.1838 19.9627 21.8323 21.2013C19.8924 19.5826 17.4385 18.1547 14.7955 18.2968C12.2755 18.4323 9.98517 20.0549 9.34868 22.2004C9.30987 22.3312 9.27636 22.4658 9.28659 22.6028C9.30115 22.7977 9.40256 22.9822 9.50968 23.1569C10.6825 25.0697 12.8212 26.5234 15.1887 27.0298C17.3365 27.4891 19.6367 27.1639 21.4566 26.173C21.4565 26.1621 21.4565 26.1513 21.4564 26.1405C21.4563 26.1274 21.4562 26.1144 21.4562 26.1015Z" fill="#F192AD"/>
<path d="M26.1689 28.9774C26.2154 28.9461 26.2598 28.9119 26.3029 28.876L26.3216 28.8602L26.3443 28.8406C26.3854 28.8048 26.4254 28.7677 26.4653 28.7302C26.4786 28.7177 26.4918 28.7052 26.5051 28.6927L26.5296 28.6695C26.5406 28.6591 26.5516 28.6488 26.5627 28.6385L26.5793 28.623C26.5904 28.6127 26.6015 28.6025 26.6127 28.5923C26.635 28.572 26.6576 28.5519 26.6805 28.5323C26.7029 28.5131 26.7255 28.4943 26.7485 28.476C26.7638 28.4638 26.7792 28.4517 26.7947 28.4399L26.8181 28.4222C26.8338 28.4105 26.8495 28.3989 26.8654 28.3875C26.8892 28.3705 26.9133 28.3537 26.9375 28.3373C26.9598 28.3222 26.9822 28.3074 27.0048 28.2929C27.0387 28.2711 27.0729 28.2498 27.1075 28.2289C27.142 28.2081 27.177 28.1877 27.2121 28.1677C27.2237 28.1611 27.2353 28.1545 27.247 28.148C27.2506 28.146 27.2542 28.144 27.2578 28.142C27.2662 28.1373 27.2747 28.1326 27.2831 28.128C27.2859 28.1264 27.2888 28.1248 27.2917 28.1233C27.301 28.1181 27.3104 28.113 27.3198 28.1079C27.3215 28.107 27.3233 28.106 27.325 28.105C27.3359 28.0992 27.3468 28.0933 27.3576 28.0874C27.3578 28.0874 27.3579 28.0873 27.3579 28.0873C27.4485 28.0387 27.5403 27.9918 27.6322 27.945C27.6349 27.9436 27.6376 27.9423 27.6403 27.9409C27.652 27.935 27.6637 27.929 27.6754 27.9231C27.6943 27.9135 27.7132 27.9039 27.7322 27.8943C27.7387 27.8909 27.7453 27.8876 27.7518 27.8843C27.756 27.8821 27.7603 27.8799 27.7645 27.8778C27.7718 27.8741 27.7792 27.8703 27.7865 27.8666C27.791 27.8643 27.7954 27.862 27.7998 27.8598C27.8063 27.8565 27.8128 27.8531 27.8193 27.8498C27.8255 27.8466 27.8318 27.8434 27.8381 27.8401C27.842 27.8381 27.8458 27.8361 27.8497 27.8341C27.858 27.8299 27.8662 27.8256 27.8745 27.8213C27.8778 27.8196 27.8811 27.8179 27.8844 27.8162C27.8924 27.8121 27.9003 27.8079 27.9082 27.8038C27.9123 27.8017 27.9162 27.7996 27.9202 27.7975C27.9284 27.7933 27.9366 27.7889 27.9448 27.7847C27.9475 27.7833 27.9501 27.7819 27.9527 27.7805C27.9618 27.7757 27.9707 27.7709 27.9797 27.7662L27.9879 27.7618C27.9965 27.7572 28.0051 27.7526 28.0136 27.748C28.0167 27.7464 28.0198 27.7447 28.0229 27.743C28.0317 27.7383 28.0404 27.7336 28.0491 27.7288C28.0518 27.7274 28.0544 27.7259 28.0571 27.7245C28.0657 27.7197 28.0743 27.715 28.083 27.7102C28.0858 27.7087 28.0886 27.7071 28.0914 27.7056C28.1003 27.7006 28.1092 27.6957 28.1181 27.6907C28.1207 27.6892 28.1232 27.6878 28.1258 27.6864C28.1339 27.6818 28.142 27.6772 28.1501 27.6726C28.1539 27.6704 28.1578 27.6682 28.1616 27.666C28.169 27.6618 28.1763 27.6576 28.1836 27.6534C28.2243 27.6298 28.2648 27.6057 28.3048 27.5808C28.3755 27.537 28.4454 27.4894 28.5134 27.4385C28.5475 27.413 28.5812 27.3867 28.6142 27.3595C28.6162 27.3579 28.6182 27.3562 28.6202 27.3545C28.6287 27.3475 28.6373 27.3403 28.6457 27.3332C28.6487 27.3307 28.6516 27.3281 28.6546 27.3256C28.662 27.3193 28.6693 27.3129 28.6766 27.3065C28.6801 27.3034 28.6836 27.3004 28.6871 27.2973C28.6939 27.2912 28.7008 27.2851 28.7075 27.279C28.7112 27.2757 28.7148 27.2724 28.7184 27.2691C28.725 27.2631 28.7316 27.257 28.7382 27.2508C28.7417 27.2475 28.7453 27.2442 28.7488 27.2409C28.7587 27.2316 28.7684 27.2222 28.7781 27.2128C28.7996 27.1917 28.8207 27.1702 28.8414 27.1484C28.8483 27.1411 28.8551 27.1338 28.8619 27.1265C28.8754 27.1118 28.8887 27.0969 28.9018 27.0819C28.9084 27.0744 28.9149 27.0668 28.9213 27.0593C28.9342 27.0441 28.9468 27.0287 28.9591 27.0133C28.9715 26.9978 28.9836 26.9822 28.9954 26.9664C29.0073 26.9506 29.0188 26.9347 29.0301 26.9186C29.0414 26.9026 29.0524 26.8864 29.063 26.87C29.0737 26.8537 29.0841 26.8372 29.0942 26.8206C29.1043 26.804 29.1141 26.7872 29.1235 26.7703C29.1329 26.7534 29.142 26.7364 29.1507 26.7193C29.1945 26.6336 29.2297 26.5446 29.2544 26.4529C29.2593 26.4346 29.2638 26.4161 29.2679 26.3975C29.2904 26.2955 29.2998 26.1902 29.2936 26.0823C29.2909 26.0336 29.2849 25.9853 29.2769 25.9373C29.2731 25.9146 29.2689 25.8918 29.2642 25.8692L29.2589 25.8438L29.2529 25.8164L29.2469 25.7901C29.2443 25.7792 29.2417 25.7683 29.2391 25.7574C29.2353 25.742 29.2315 25.7266 29.2277 25.7113L29.2211 25.685C29.2167 25.6676 29.2123 25.65 29.2079 25.6325C29.204 25.6172 29.2002 25.6019 29.1964 25.5865L29.1933 25.5737C29.1852 25.5408 29.1775 25.5078 29.1706 25.4748L29.1641 25.4433C29.1607 25.4261 29.1575 25.4089 29.1546 25.3916C29.1459 25.3399 29.1395 25.2878 29.1368 25.2352C29.1309 25.1157 29.1444 24.9973 29.1644 24.8793C29.1657 24.8714 29.1671 24.8635 29.1685 24.8557C29.1782 24.8006 29.1892 24.7456 29.2001 24.6906L29.2062 24.6593C29.2181 24.599 29.2296 24.5386 29.239 24.4781C29.2477 24.4216 29.2543 24.3649 29.259 24.3081L29.2592 24.3056C29.2602 24.2927 29.2611 24.2798 29.2619 24.2669L29.2622 24.2634C29.263 24.25 29.2637 24.2366 29.2643 24.2232C29.2648 24.2134 29.2651 24.2036 29.2654 24.1937C29.2656 24.1904 29.2657 24.1871 29.2658 24.1837C29.2662 24.171 29.2665 24.1582 29.2667 24.1455C29.2667 24.1454 29.2667 24.1452 29.2667 24.1451C29.2775 23.3439 28.8939 22.5475 28.2809 22.0308C28.3483 22.1261 28.4098 22.2283 28.438 22.3371C28.4689 22.4564 28.4399 22.5693 28.3953 22.6807C28.325 22.8564 28.2556 23.0273 28.2121 23.2123C28.1263 23.5775 28.1375 23.9346 28.2447 24.2936C28.3016 24.4839 28.374 24.6694 28.4464 24.8542C28.5081 25.0119 28.5745 25.1658 28.6115 25.3318C28.6609 25.554 28.6639 25.7887 28.5624 25.9971C28.3727 26.387 27.9001 26.5605 27.5386 26.7454C27.3194 26.8576 27.1014 26.979 26.9136 27.1398C26.7956 27.241 26.6984 27.3616 26.5883 27.4709C26.4519 27.6062 26.3019 27.7313 26.1356 27.8283C25.8523 27.9936 25.524 28.0598 25.2044 27.9689C24.8406 27.8655 24.5273 27.5992 24.2923 27.3111C24.2104 27.2107 24.134 27.1056 24.0325 27.0235C23.895 26.9125 23.729 26.8413 23.562 26.7881C23.2654 26.6939 22.9457 26.6392 22.7075 26.4229C22.4514 26.1903 22.3474 25.8545 22.3882 25.5166C22.4323 25.1512 22.584 24.8099 22.6977 24.463C22.7535 24.2928 22.8051 24.1177 22.8228 23.9388C22.8386 23.7791 22.8414 23.6193 22.8641 23.4599C22.9045 23.1751 22.9835 22.8928 23.1239 22.6403C23.2669 22.3833 23.468 22.1852 23.7022 22.0341C23.4364 22.0952 23.1478 22.2069 22.863 22.3564C22.8618 22.357 22.8607 22.3576 22.8595 22.3582C22.8332 22.3721 22.807 22.3862 22.7808 22.4006C22.7799 22.4011 22.779 22.4016 22.7781 22.4022C22.7661 22.4087 22.7543 22.4154 22.7424 22.4221C22.7408 22.423 22.7393 22.4238 22.7377 22.4247C22.7248 22.432 22.7119 22.4394 22.699 22.4469C22.6987 22.4471 22.6985 22.4472 22.6982 22.4474C22.6862 22.4544 22.6741 22.4614 22.6621 22.4685C22.6598 22.4699 22.6574 22.4713 22.6551 22.4727C22.6303 22.4874 22.6057 22.5023 22.5812 22.5176C22.5787 22.5191 22.5762 22.5207 22.5737 22.5222C22.5634 22.5286 22.5531 22.535 22.5429 22.5415C22.5407 22.5429 22.5385 22.5443 22.5362 22.5458C22.5242 22.5534 22.5122 22.5611 22.5003 22.5689C22.4982 22.5702 22.4961 22.5716 22.4941 22.5729C22.4841 22.5794 22.4743 22.5859 22.4644 22.5924C22.4613 22.5945 22.4582 22.5965 22.4551 22.5985C22.4434 22.6064 22.4316 22.6143 22.4198 22.6223L22.4177 22.6237L22.3917 22.6415L22.3885 22.6437C22.3747 22.6533 22.3608 22.663 22.347 22.6728C22.3194 22.6923 22.292 22.7121 22.2649 22.7323C22.2514 22.7423 22.2378 22.7525 22.2244 22.7627L22.2221 22.7644L22.1983 22.7827L22.1932 22.7866L22.1713 22.8036L22.164 22.8094L22.1429 22.8261L22.1375 22.8305C22.104 22.8572 22.0711 22.8844 22.0386 22.9121L22.0349 22.9152L22.0154 22.9319L22.0072 22.9391L21.9887 22.9552L21.9803 22.9626L21.962 22.9789L21.9535 22.9865L21.9353 23.003L21.9283 23.0094L21.9085 23.0276L21.9072 23.0288C21.8849 23.0496 21.8628 23.0706 21.8411 23.0918L21.8337 23.099L21.8178 23.1147L21.8084 23.1241L21.7929 23.1396L21.783 23.1497L21.7688 23.1643L21.7582 23.1753L21.7433 23.1908L21.735 23.1996L21.7197 23.2158L21.7096 23.2268L21.6835 23.2554L21.6737 23.2663L21.6616 23.28L21.6504 23.2926L21.6383 23.3067L21.6275 23.3192L21.6156 23.3332L21.6051 23.3457L21.5929 23.3604L21.5829 23.3725L21.5716 23.3865L21.56 23.401L21.55 23.4135L21.5378 23.4291L21.5246 23.4462L21.5091 23.4667L21.4992 23.48L21.4889 23.4939L21.479 23.5076L21.4687 23.5219C21.4086 23.6064 21.3548 23.6925 21.3085 23.7796L21.3038 23.7885L21.2975 23.8007L21.2885 23.8182L21.2829 23.8293L21.2722 23.8512L21.2689 23.858L21.2558 23.8862L21.251 23.8969L21.2429 23.915L21.2377 23.9272L21.2306 23.944L21.2255 23.9565L21.2188 23.9732L21.2138 23.9859L21.2076 24.0024L21.2029 24.0151L21.1967 24.0327L21.1927 24.044L21.1851 24.0668L21.183 24.0732L21.1741 24.1017L21.171 24.1126L21.1657 24.1308L21.1624 24.1433L21.1579 24.1601L21.1547 24.1731L21.1508 24.1893L21.1477 24.2027L21.1443 24.2187L21.1415 24.232L21.1382 24.2488L21.1359 24.2613L21.1324 24.282L21.1304 24.295L21.127 24.3189L21.1255 24.3304L21.1235 24.3483C21.1098 24.474 21.1153 24.5996 21.143 24.7238C21.1723 24.8556 21.2187 24.9827 21.2663 25.1095C21.2695 25.1179 21.2727 25.1264 21.2758 25.1348C21.286 25.1618 21.2962 25.1889 21.3063 25.2159C21.3175 25.2461 21.3285 25.2764 21.3391 25.3067C21.373 25.4033 21.4029 25.5008 21.4221 25.6013C21.4533 25.7649 21.4554 25.9332 21.4561 26.1012C21.4561 26.1141 21.4562 26.1271 21.4562 26.14C21.4563 26.1509 21.4563 26.1617 21.4564 26.1725L21.4564 26.1787L21.4565 26.1981L21.4567 26.2175C21.4568 26.2304 21.457 26.2433 21.4571 26.2562C21.4575 26.2819 21.4581 26.3076 21.4589 26.3333L21.4596 26.3533C21.4601 26.3659 21.4606 26.3784 21.4612 26.3909L21.4623 26.4101C21.463 26.4228 21.4638 26.4356 21.4647 26.4483L21.4662 26.4673C21.4673 26.48 21.4684 26.4927 21.4697 26.5054L21.4703 26.5112C21.472 26.5282 21.474 26.5452 21.4763 26.5621C21.478 26.5747 21.4798 26.5872 21.4817 26.5998C21.4857 26.6248 21.4903 26.6497 21.4956 26.6745C21.4996 26.693 21.5039 26.7115 21.5087 26.7299C21.5104 26.7361 21.512 26.7422 21.5137 26.7483L21.5216 26.7751C21.5264 26.7906 21.5314 26.806 21.5369 26.8213C21.5499 26.8579 21.5648 26.8935 21.5814 26.9279C21.6017 26.97 21.6244 27.0104 21.6494 27.0494C21.6899 27.1127 21.7362 27.1721 21.7871 27.2281L21.8026 27.245C21.8288 27.2729 21.8561 27.3001 21.8844 27.3265L21.9015 27.3422C21.9291 27.3673 21.9576 27.3918 21.9869 27.4156C22.0001 27.4263 22.0135 27.437 22.027 27.4475C22.0456 27.462 22.0645 27.4762 22.0835 27.4902C22.128 27.523 22.1738 27.5545 22.2203 27.585C22.2536 27.6068 22.2872 27.6281 22.3211 27.649C22.3686 27.6782 22.4165 27.7066 22.4644 27.7343C22.5124 27.762 22.5604 27.7891 22.608 27.8157L24.3407 28.7845C24.5267 28.8885 24.7176 28.9939 24.9161 29.0708C24.9274 29.0752 24.9388 29.0795 24.9501 29.0837C24.9729 29.0921 24.9958 29.1001 25.0188 29.1077C25.0361 29.1134 25.0534 29.1188 25.0707 29.124C25.0823 29.1274 25.0939 29.1307 25.1055 29.134L25.123 29.1387C25.1522 29.1463 25.1815 29.1533 25.211 29.1593L25.2287 29.1627C25.2464 29.1661 25.2642 29.1692 25.2821 29.172C25.3 29.1747 25.3179 29.1771 25.336 29.1791C25.366 29.1825 25.3962 29.1848 25.4266 29.1861L25.4497 29.1869C25.4805 29.1876 25.5113 29.1872 25.5421 29.1856C25.5574 29.1848 25.5728 29.1837 25.5881 29.1823C25.6035 29.181 25.6188 29.1793 25.6341 29.1774C25.6481 29.1756 25.6622 29.1735 25.6762 29.1713C25.6914 29.1688 25.7065 29.1661 25.7216 29.1631L25.752 29.1566C25.7641 29.1539 25.7762 29.151 25.7882 29.1479C25.8458 29.1331 25.9024 29.1141 25.9572 29.0912C26.0174 29.0661 26.0755 29.0362 26.1309 29.0017C26.1438 28.994 26.1564 28.9858 26.1689 28.9774Z" fill="#4C0D33"/>
<path d="M21.5089 26.7303C21.5041 26.7118 21.4997 26.6933 21.4957 26.6748C21.4905 26.65 21.4859 26.6251 21.4819 26.6001C21.48 26.5876 21.4781 26.575 21.4765 26.5624C21.4742 26.5455 21.4722 26.5285 21.4704 26.5115C21.1695 26.7001 20.8566 26.8738 20.5336 27.0324C20.8543 26.9321 21.1789 26.8472 21.506 26.7786L21.5218 26.7754L21.5139 26.7486C21.5122 26.7425 21.5105 26.7364 21.5089 26.7303Z" fill="#DC638E"/>
<path d="M39.2755 12.4165C38.9242 11.1844 38.2617 10.1247 37.5098 9.16741C36.7485 8.19821 36.0911 8.20643 34.8464 8.71958C33.7951 9.15302 32.7438 9.58647 31.6925 10.0199C31.8259 10.1977 31.9312 10.3976 32.0143 10.6031C32.3171 11.3529 32.385 12.1698 32.5542 12.9541C32.6467 13.3825 32.7931 13.8288 33.1517 14.109C33.4666 14.355 33.8737 14.4074 34.2618 14.3811C34.7506 14.348 35.2243 14.2082 35.6997 14.0998C36.3061 13.9614 36.9138 13.8227 37.5303 13.7369C38.1217 13.6545 38.726 13.623 39.3194 13.7025C39.3813 13.7108 39.4449 13.7215 39.5062 13.7324C39.4731 13.2797 39.3951 12.8359 39.2755 12.4165Z" fill="#EF82A4"/>
<path d="M30.0866 18.9625C31.9408 17.01 34.2395 15.3607 36.9524 14.9683C37.8007 14.8456 38.6553 14.8582 39.4786 14.9901C39.5289 14.5697 39.5367 14.1469 39.5062 13.7324C39.4442 13.7214 39.382 13.7108 39.3195 13.7024C38.726 13.623 38.1217 13.6545 37.5303 13.7369C36.9138 13.8227 36.3061 13.9614 35.6997 14.0998C35.2244 14.2082 34.7506 14.348 34.2618 14.3811C33.8737 14.4073 33.4666 14.3549 33.1518 14.109C32.7931 13.8288 32.6467 13.3825 32.5543 12.9541C32.385 12.1698 32.3171 11.3529 32.0143 10.6031C31.9312 10.3975 31.8259 10.1977 31.6925 10.0199C31.3593 10.1573 31.026 10.2947 30.6928 10.4321C30.5059 10.5091 30.3143 10.5909 30.1238 10.6798C30.3445 11.1242 30.5262 11.5909 30.6626 12.0741C31.3104 14.368 30.9209 16.754 30.0866 18.9625Z" fill="#DC638E"/>
<path d="M16.6656 10.1147C15.4077 9.63478 14.7504 9.64406 14.0151 10.6331C13.2889 11.6101 12.6548 12.687 12.3363 13.928C12.31 14.0304 12.2857 14.1375 12.2643 14.2424C12.266 14.244 12.2703 14.2436 12.2703 14.2436C12.5861 14.3008 12.896 14.3906 13.1977 14.499C14.0491 14.8047 14.8421 15.25 15.6916 15.5604C16.1 15.7097 16.5369 15.8492 16.974 15.8715C17.3 15.8882 17.6274 15.8169 17.8804 15.6017C18.1252 15.3934 18.265 15.0868 18.3587 14.7858C18.4955 14.3463 18.5515 13.8837 18.5874 13.4263C18.6522 12.6008 18.6406 11.7524 18.8817 10.9602C18.143 10.6784 17.4044 10.3965 16.6656 10.1147Z" fill="#EF82A4"/>
<path d="M18.3587 14.7858C18.265 15.0867 18.1252 15.3934 17.8804 15.6017C17.6273 15.8169 17.3 15.8881 16.974 15.8715C16.5369 15.8492 16.1 15.7097 15.6916 15.5604C14.8421 15.2499 14.0491 14.8046 13.1977 14.499C12.894 14.3899 12.5822 14.2995 12.2644 14.2424C12.1216 14.9445 12.0902 15.6966 12.1915 16.4396C15.1506 16.2951 17.9285 17.6394 20.2623 19.3573C19.6857 17.9647 19.371 16.4441 19.3715 14.9173C19.372 13.7076 19.571 12.5025 19.9428 11.365L18.8817 10.9602C18.6406 11.7524 18.6523 12.6008 18.5874 13.4263C18.5515 13.8836 18.4955 14.3463 18.3587 14.7858Z" fill="#DC638E"/>
<path d="M30.2923 40.8613L30.2712 40.858C29.8861 40.7854 29.523 40.6332 29.1942 40.4212C28.8467 40.1971 28.5417 39.9132 28.2638 39.6086C28.1154 39.446 27.9745 39.2767 27.8384 39.1038C27.6885 38.9134 27.55 38.7175 27.3665 38.5569C27.0804 38.3065 26.7095 38.1412 26.325 38.2244C25.9116 38.3139 25.6085 38.6555 25.4031 39.0052C24.978 39.7285 24.6114 40.4921 24.1108 41.1685C23.8999 41.4535 23.6576 41.7196 23.3856 41.9477C23.5343 42.0663 23.6872 42.1783 23.8428 42.281C24.9119 42.9869 26.1048 43.3594 27.2989 43.5959C28.5079 43.8354 29.0013 43.401 29.6114 42.2008" fill="#EF82A4"/>
<path d="M26.0924 32.7524C25.8337 35.7147 24.9629 38.7414 22.7554 40.8001C22.6606 40.8886 22.5636 40.9747 22.4648 41.0582C22.7458 41.3876 23.0564 41.6861 23.3857 41.9477C23.6584 41.7193 23.8994 41.4541 24.1109 41.1685C24.6115 40.4921 24.9781 39.7285 25.4031 39.0052C25.6086 38.6555 25.9116 38.3139 26.325 38.2244C26.7096 38.1412 27.0804 38.3065 27.3666 38.5569C27.55 38.7175 27.6886 38.9134 27.8384 39.1038C27.9745 39.2767 28.1155 39.446 28.2638 39.6086C28.5417 39.9132 28.8468 40.1971 29.1942 40.4212C29.5231 40.6332 29.8861 40.7854 30.2712 40.858L30.2924 40.8613C30.4507 40.5499 30.6091 40.2384 30.7674 39.9269C30.4643 39.7483 30.1715 39.5495 29.8919 39.3308C27.8259 37.7145 26.6987 35.273 26.0924 32.7524Z" fill="#DC638E"/>
<path d="M21.1236 24.3486L21.1227 24.357L16.5148 23.2826C18.0048 23.9098 19.5565 24.5467 21.1431 24.7241V24.7241C21.1154 24.5999 21.1099 24.4743 21.1236 24.3486Z" fill="#61043B"/>
<path d="M15.4529 20.4923L21.3086 23.7799C21.3549 23.6927 21.4087 23.6066 21.4688 23.5221L21.4636 23.5294C19.7871 22.0618 17.5783 21.2494 15.4529 20.4923Z" fill="#61043B"/>
<path d="M21.4957 26.6748C21.4997 26.6933 21.5041 26.7119 21.5089 26.7303C21.5041 26.7119 21.4997 26.6933 21.4957 26.6748Z" fill="#61043B"/>
<path d="M23.1473 28.1175C21.2108 29.3393 19.8031 31.3064 18.4748 33.2042L23.379 28.247L23.1473 28.1175Z" fill="#61043B"/>
<path d="M23.8437 28.5069L21.4468 32.9204C22.4854 31.601 23.5518 30.2201 24.131 28.6674L23.8437 28.5069Z" fill="#61043B"/>
<path d="M29.2207 23.6329C29.218 23.6181 29.2157 23.6033 29.2127 23.5886L33.225 22.1304C31.8318 22.3828 30.3948 22.6549 29.1014 23.2008C29.0959 23.1857 29.0894 23.1709 29.0831 23.156C29.0828 23.1562 29.0825 23.1564 29.0822 23.1565C29.1425 23.311 29.1885 23.4707 29.2197 23.633C29.2201 23.633 29.2203 23.6329 29.2207 23.6329Z" fill="#61043B"/>
<path d="M28.6115 25.3319C28.5746 25.1659 28.5082 25.012 28.4464 24.8543C28.3741 24.6695 28.3016 24.484 28.2448 24.2937C28.1376 23.9347 28.1263 23.5776 28.2122 23.2124C28.2556 23.0274 28.325 22.8565 28.3953 22.6808C28.44 22.5694 28.4689 22.4564 28.438 22.3372C28.4099 22.2284 28.3483 22.1262 28.281 22.0309C28.2316 21.9857 28.2342 21.9858 28.1809 21.9452L28.1585 21.9284C27.976 21.7924 27.7757 21.6806 27.5613 21.5995C27.2087 21.466 26.8076 21.4112 26.457 21.5501C26.2399 21.6362 26.0563 21.7903 25.8452 21.8899C26.3562 19.7172 26.0344 17.3816 25.7031 15.146L25.5509 21.9896C25.3647 22.0312 25.1711 22.0394 24.9747 22.0336L23.7394 17.3948C23.8813 18.9516 24.0423 20.5635 24.5855 22.0098C24.4485 21.999 24.3117 21.9877 24.1767 21.9824C24.0322 21.9768 23.8712 21.9959 23.701 22.0351C23.4674 22.186 23.2666 22.3838 23.1239 22.6404C22.9836 22.8929 22.9045 23.1752 22.864 23.46C22.8414 23.6194 22.8386 23.7792 22.8228 23.9389C22.8051 24.1178 22.7535 24.2929 22.6977 24.4631C22.584 24.81 22.4323 25.1513 22.3882 25.5167C22.3474 25.8546 22.4513 26.1905 22.7075 26.423C22.9457 26.6393 23.2654 26.694 23.562 26.7883C23.729 26.8414 23.895 26.9127 24.0325 27.0237C24.134 27.1057 24.2104 27.2108 24.2923 27.3112C24.5273 27.5994 24.8406 27.8656 25.2044 27.969C25.524 28.0599 25.8523 27.9937 26.1356 27.8285C26.302 27.7314 26.4519 27.6064 26.5883 27.471C26.6984 27.3617 26.7956 27.2411 26.9136 27.14C27.1014 26.9791 27.3194 26.8577 27.5386 26.7455C27.9 26.5606 28.3726 26.3871 28.5624 25.9972C28.6639 25.7888 28.661 25.5541 28.6115 25.3319Z" fill="#61043B"/>
<path d="M29.2063 24.6594C31.3315 24.8985 33.531 24.3936 35.6383 23.8881L29.2589 24.3103L29.259 24.3082C29.2544 24.365 29.2477 24.4217 29.239 24.4782C29.2296 24.5387 29.2182 24.5991 29.2063 24.6594Z" fill="#61043B"/>
<path d="M30.4081 34.0145L27.6323 27.945C27.5404 27.9918 27.4486 28.0387 27.358 28.0873C27.8593 30.2335 29.1507 32.1699 30.4081 34.0145Z" fill="#61043B"/>
<path d="M28.513 27.4389L28.3049 27.5809C28.2658 27.6051 28.2304 27.6263 28.1906 27.6494L31.1948 31.1344C30.4105 29.8323 29.5872 28.491 28.513 27.4389Z" fill="#61043B"/>
<path d="M24.0404 23.7243C24.0113 23.6758 24.0449 23.6154 24.0492 23.559C24.0541 23.4955 24.016 23.431 23.9581 23.4045C23.8477 23.3541 23.5679 23.4869 23.6658 23.637C23.6846 23.6659 23.7172 23.6855 23.7295 23.7177C23.7456 23.7596 23.7216 23.8053 23.7171 23.85C23.7084 23.9372 23.7835 24.0197 23.8702 24.0324C23.9568 24.0451 24.0455 23.9968 24.095 23.9246C24.1206 23.8874 24.1368 23.8364 24.1132 23.7979C24.0952 23.7682 24.0582 23.754 24.0404 23.7243Z" fill="#4C0D33"/>
<path d="M25.8037 22.9725C25.7746 22.9241 25.8082 22.8636 25.8125 22.8073C25.8174 22.7438 25.7793 22.6792 25.7215 22.6527C25.611 22.6023 25.3313 22.7352 25.4291 22.8852C25.4479 22.9141 25.4805 22.9337 25.4928 22.9659C25.5089 23.0079 25.4849 23.0535 25.4804 23.0983C25.4717 23.1854 25.5468 23.2679 25.6335 23.2806C25.7201 23.2933 25.8088 23.2451 25.8583 23.1729C25.8839 23.1356 25.9001 23.0846 25.8765 23.0461C25.8585 23.0165 25.8216 23.0023 25.8037 22.9725Z" fill="#4C0D33"/>
<path d="M23.5848 25.1554C23.5761 25.1831 23.5808 25.2148 23.5665 25.2401C23.5478 25.273 23.5053 25.2819 23.4738 25.303C23.4124 25.3441 23.3991 25.4371 23.4373 25.5002C23.4755 25.5634 23.5544 25.5952 23.628 25.5887C23.6659 25.5853 23.7077 25.5685 23.7201 25.5325C23.7297 25.5049 23.7191 25.4733 23.7289 25.4457C23.7448 25.4008 23.8021 25.3902 23.8411 25.3628C23.8849 25.332 23.9065 25.2726 23.8927 25.2208C23.8662 25.1219 23.6299 25.0113 23.5848 25.1554Z" fill="#4C0D33"/>
<path d="M25.5626 24.5528C25.6006 24.5494 25.6424 24.5326 25.6548 24.4966C25.6644 24.4689 25.6538 24.4373 25.6636 24.4098C25.6795 24.3649 25.7368 24.3543 25.7757 24.3269C25.8196 24.296 25.8412 24.2366 25.8274 24.1848C25.8009 24.086 25.5645 23.9754 25.5194 24.1195C25.5108 24.1472 25.5155 24.1789 25.5012 24.2042C25.4825 24.2371 25.44 24.246 25.4085 24.2671C25.3471 24.3081 25.3338 24.4012 25.372 24.4643C25.4102 24.5275 25.4891 24.5593 25.5626 24.5528Z" fill="#4C0D33"/>
<path d="M27.4476 23.1655C27.4212 23.0666 27.1848 22.956 27.1397 23.1001C27.131 23.1278 27.1357 23.1595 27.1214 23.1848C27.1028 23.2178 27.0602 23.2266 27.0287 23.2477C26.9674 23.2888 26.9541 23.3818 26.9922 23.445C27.0305 23.5082 27.1094 23.5399 27.1829 23.5334C27.2208 23.5301 27.2626 23.5133 27.275 23.4773C27.2846 23.4496 27.274 23.418 27.2838 23.3904C27.2997 23.3455 27.357 23.335 27.396 23.3076C27.4399 23.2767 27.4614 23.2173 27.4476 23.1655Z" fill="#4C0D33"/>
<path d="M25.0179 25.5165C25.0092 25.5443 25.014 25.5759 24.9997 25.6012C24.981 25.6342 24.9384 25.6431 24.9069 25.6641C24.8456 25.7052 24.8323 25.7983 24.8705 25.8614C24.9087 25.9246 24.9876 25.9563 25.0611 25.9499C25.099 25.9465 25.1409 25.9297 25.1533 25.8937C25.1628 25.8661 25.1523 25.8344 25.162 25.8069C25.178 25.762 25.2353 25.7514 25.2742 25.724C25.3181 25.6932 25.3397 25.6338 25.3258 25.582C25.2994 25.483 25.063 25.3724 25.0179 25.5165Z" fill="#4C0D33"/>
<path d="M27.5021 24.4811C27.4934 24.5088 27.4982 24.5405 27.4839 24.5657C27.4652 24.5987 27.4226 24.6076 27.3911 24.6287C27.3298 24.6697 27.3165 24.7627 27.3547 24.8259C27.3929 24.8891 27.4718 24.9208 27.5453 24.9143C27.5832 24.911 27.6251 24.8942 27.6375 24.8582C27.647 24.8305 27.6364 24.7989 27.6462 24.7714C27.6621 24.7265 27.7195 24.7159 27.7584 24.6885C27.8023 24.6577 27.8238 24.5983 27.81 24.5464C27.7836 24.4475 27.5472 24.3369 27.5021 24.4811Z" fill="#4C0D33"/>
<path d="M26.7513 25.8656C26.7426 25.8933 26.7473 25.925 26.733 25.9503C26.7143 25.9832 26.6718 25.9921 26.6403 26.0132C26.5789 26.0543 26.5656 26.1473 26.6038 26.2105C26.642 26.2736 26.7209 26.3054 26.7944 26.2989C26.8324 26.2956 26.8742 26.2788 26.8866 26.2428C26.8962 26.2151 26.8856 26.1835 26.8954 26.1559C26.9113 26.1111 26.9686 26.1005 27.0075 26.0731C27.0514 26.0422 27.073 25.9828 27.0591 25.931C27.0327 25.8321 26.7964 25.7215 26.7513 25.8656Z" fill="#4C0D33"/>
<path d="M25.5365 26.9261C25.5278 26.9538 25.5325 26.9855 25.5182 27.0108C25.4995 27.0437 25.457 27.0526 25.4255 27.0737C25.3642 27.1148 25.3508 27.2078 25.389 27.2709C25.4272 27.3341 25.5061 27.3659 25.5797 27.3594C25.6176 27.3561 25.6594 27.3393 25.6718 27.3033C25.6814 27.2756 25.6708 27.244 25.6806 27.2164C25.6965 27.1715 25.7538 27.1609 25.7928 27.1336C25.8367 27.1027 25.8582 27.0433 25.8444 26.9915C25.8179 26.8926 25.5816 26.782 25.5365 26.9261Z" fill="#4C0D33"/>
</svg>
